<svg width="161" height="157" viewBox="0 0 161 157" fill="none" xmlns="http://www.w3.org/2000/svg">
<path d="M0 5.82609C0 2.60843 3.06654 0 6.84932 0H93.1507C96.9335 0 100 2.60843 100 5.82609V128.174C100 131.392 96.9335 134 93.1507 134H6.84931C3.06654 134 0 131.392 0 128.174V5.82609Z" fill="url(#paint0_linear)"/>
<path d="M48.0822 79.1273V88.4647H16.1118V81.0899L31.4811 66.5187C32.9671 65.0913 33.9644 63.882 34.4728 62.8907C34.9812 61.8598 35.2354 60.829 35.2354 59.7981C35.2354 58.45 34.7856 57.3993 33.8862 56.6459C32.9867 55.8926 31.6766 55.5159 29.9559 55.5159C28.4307 55.5159 27.0228 55.8728 25.7323 56.5864C24.4808 57.2605 23.4445 58.2517 22.6232 59.5602L14 54.6833C15.6034 51.9871 17.8521 49.8658 20.746 48.3195C23.64 46.7732 27.0619 46 31.0118 46C34.1404 46 36.8974 46.5154 39.283 47.5463C41.7077 48.5772 43.5848 50.0641 44.9145 52.0069C46.2832 53.9101 46.9676 56.1305 46.9676 58.668C46.9676 60.9281 46.4788 63.0692 45.5011 65.0913C44.5625 67.0738 42.7245 69.3338 39.9869 71.8714L32.2436 79.1273H48.0822Z" fill="white" fill-opacity="0.53"/>
<path d="M58.3126 89C56.4355 89 54.8516 88.3656 53.5611 87.0968C52.2705 85.828 51.6252 84.2222 51.6252 82.2794C51.6252 80.2969 52.251 78.6911 53.5024 77.462C54.7929 76.2328 56.3964 75.6183 58.3126 75.6183C60.268 75.6183 61.8714 76.2328 63.1228 77.462C64.3743 78.6911 65 80.2969 65 82.2794C65 84.2222 64.3547 85.828 63.0642 87.0968C61.8127 88.3656 60.2289 89 58.3126 89Z" fill="white" fill-opacity="0.53"/>
<g filter="url(#filter0_d)">
<path d="M57 42.9231C57 39.6519 59.64 37 62.8966 37H127.103C130.36 37 133 39.6519 133 42.9231V108.077C133 111.348 130.36 114 127.103 114H62.8966C59.64 114 57 111.348 57 108.077V42.9231Z" fill="#25252B"/>
</g>
<g filter="url(#filter1_d)">
<path d="M83 66.2714C83 65.5697 83.5746 65.0008 84.2833 65.0008H112.717C113.425 65.0008 114 65.5697 114 66.2714V82.7302C114 83.4319 113.425 84.0008 112.717 84.0008H84.2834C83.5746 84.0008 83 83.4319 83 82.7302V66.2714Z" fill="white"/>
<path d="M83 66.044C83 65.4679 83.5746 65.0008 84.2833 65.0008H112.717C113.425 65.0008 114 65.4679 114 66.044V68.0008H83V66.044Z" fill="white"/>
</g>
<path d="M87 69.9502C87 69.4259 87.4444 69.0008 87.9926 69.0008H109.007C109.556 69.0008 110 69.4259 110 69.9502V70.0514C110 70.5757 109.556 71.0008 109.007 71.0008H87.9926C87.4444 71.0008 87 70.5757 87 70.0514V69.9502Z" fill="#0E0E10"/>
<path d="M87 76.9502C87 76.4259 87.4554 76.0008 88.0172 76.0008H100.983C101.545 76.0008 102 76.4259 102 76.9502V77.0514C102 77.5757 101.545 78.0008 100.983 78.0008H88.0172C87.4554 78.0008 87 77.5757 87 77.0514V76.9502Z" fill="#0E0E10"/>
<path d="M88.8211 82.6909C94.9789 82.7711 100.037 77.8435 100.117 71.6855C100.197 65.5276 95.2695 60.4696 89.1116 60.3894C82.9538 60.3092 77.896 65.2371 77.8158 71.3949C77.7355 77.5529 82.6632 82.6107 88.8211 82.6909ZM80.6036 71.4313C80.6636 66.8196 84.4635 63.1171 89.0752 63.1772C93.6869 63.2373 97.3894 67.0375 97.3293 71.6492C97.2692 76.2607 93.469 79.9635 88.8573 79.9034C84.2456 79.8434 80.5435 76.0428 80.6036 71.4313Z" fill="#5A67C0"/>
<path d="M74.9063 89.1279L81.8175 82.3951C80.25 81.358 78.923 79.9953 77.9271 78.4013L71.0159 85.1347C69.9128 86.2097 69.8898 87.9755 70.9645 89.0765C72.0374 90.1799 73.8033 90.2029 74.9063 89.1279Z" fill="#5A67C0"/>
<defs>
<filter id="filter0_d" x="29" y="24" width="132" height="133" filterUnits="userSpaceOnUse" color-interpolation-filters="sRGB">
<feFlood flood-opacity="0" result="BackgroundImageFix"/>
<feColorMatrix in="SourceAlpha" type="matrix" values="0 0 0 0 0 0 0 0 0 0 0 0 0 0 0 0 0 0 127 0"/>
<feOffset dy="15"/>
<feGaussianBlur stdDeviation="14"/>
<feColorMatrix type="matrix" values="0 0 0 0 0 0 0 0 0 0 0 0 0 0 0 0 0 0 0.25 0"/>
<feBlend mode="normal" in2="BackgroundImageFix" result="effect1_dropShadow"/>
<feBlend mode="normal" in="SourceGraphic" in2="effect1_dropShadow" result="shape"/>
</filter>
<filter id="filter1_d" x="75" y="64.0008" width="47" height="35" filterUnits="userSpaceOnUse" color-interpolation-filters="sRGB">
<feFlood flood-opacity="0" result="BackgroundImageFix"/>
<feColorMatrix in="SourceAlpha" type="matrix" values="0 0 0 0 0 0 0 0 0 0 0 0 0 0 0 0 0 0 127 0"/>
<feOffset dy="7"/>
<feGaussianBlur stdDeviation="4"/>
<feColorMatrix type="matrix" values="0 0 0 0 0 0 0 0 0 0 0 0 0 0 0 0 0 0 0.13 0"/>
<feBlend mode="normal" in2="BackgroundImageFix" result="effect1_dropShadow"/>
<feBlend mode="normal" in="SourceGraphic" in2="effect1_dropShadow" result="shape"/>
</filter>
<linearGradient id="paint0_linear" x1="50" y1="0" x2="50" y2="134" gradientUnits="userSpaceOnUse">
<stop stop-color="#688CE8"/>
<stop offset="1" stop-color="#A8BBEC"/>
</linearGradient>
</defs>
</svg>
