<svg width="159" height="140" viewBox="0 0 159 140" fill="none" xmlns="http://www.w3.org/2000/svg">
<path d="M0 5.43104C0 2.43156 2.85456 0 6.37584 0H88.6242C92.1454 0 95 2.43156 95 5.43103V120.569C95 123.568 92.1454 126 88.6242 126H6.37584C2.85456 126 0 123.568 0 120.569V5.43104Z" fill="#25252B"/>
<path d="M38.0402 63.0784C41.4062 63.7675 43.9791 65.1457 45.7589 67.2129C47.5774 69.2418 48.4866 71.711 48.4866 74.6204C48.4866 76.9939 47.8288 79.1951 46.5134 81.2241C45.2366 83.253 43.2634 84.8992 40.5937 86.1625C37.9628 87.3875 34.6934 88 30.7857 88C27.9226 88 25.0789 87.6555 22.2545 86.9664C19.4687 86.2773 17.0506 85.3011 15 84.0378L19.1786 75.4818C20.7649 76.5537 22.5446 77.3768 24.5178 77.951C26.5298 78.5252 28.503 78.8123 30.4375 78.8123C32.4107 78.8123 33.9777 78.4486 35.1384 77.7213C36.2991 76.9939 36.8794 75.9603 36.8794 74.6204C36.8794 72.0173 34.8095 70.7157 30.6696 70.7157H25.8527V63.5378L33.1071 55.7857H17.0893V47H46.4553V54.1204L38.0402 63.0784Z" fill="white" fill-opacity="0.53"/>
<path d="M58.3839 87.7129C56.5268 87.7129 54.9598 87.1004 53.683 85.8753C52.4063 84.6503 51.7679 83.0999 51.7679 81.2241C51.7679 79.31 52.3869 77.7596 53.625 76.5728C54.9018 75.3861 56.4881 74.7927 58.3839 74.7927C60.3185 74.7927 61.9048 75.3861 63.1429 76.5728C64.381 77.7596 65 79.31 65 81.2241C65 83.0999 64.3616 84.6503 63.0848 85.8753C61.8467 87.1004 60.2798 87.7129 58.3839 87.7129Z" fill="white" fill-opacity="0.53"/>
<g filter="url(#filter0_d)">
<path d="M57 27.7692C57 24.583 59.5705 22 62.7414 22H125.259C128.429 22 131 24.583 131 27.7692V91.2308C131 94.417 128.429 97 125.259 97H62.7414C59.5705 97 57 94.417 57 91.2308V27.7692Z" fill="white"/>
</g>
<path d="M77 55.3162C77 54.5895 77.5835 54.0004 78.3033 54.0004H107.697C108.417 54.0004 109 54.5895 109 55.3162V72.6846C109 73.4113 108.417 74.0004 107.697 74.0004H78.3033C77.5835 74.0004 77 73.4113 77 72.6846V55.3162Z" fill="#EAEAEA"/>
<path d="M77 55.3689C77 54.6131 77.5835 54.0004 78.3033 54.0004H107.697C108.417 54.0004 109 54.6131 109 55.3689V58.0004H77V55.3689Z" fill="#EAEAEA"/>
<path d="M95 45.6163C95 45.2759 95.2956 45 95.6603 45H109.34C109.704 45 110 45.2759 110 45.6163V65.3837C110 65.7241 109.704 66 109.34 66H95.6603C95.2956 66 95 65.7241 95 65.3837V45.6163Z" fill="url(#paint0_linear)"/>
<path d="M104 62.5C104 63.3284 103.328 64 102.5 64C101.672 64 101 63.3284 101 62.5C101 61.6716 101.672 61 102.5 61C103.328 61 104 61.6716 104 62.5Z" fill="white"/>
<defs>
<filter id="filter0_d" x="29" y="9" width="130" height="131" filterUnits="userSpaceOnUse" color-interpolation-filters="sRGB">
<feFlood flood-opacity="0" result="BackgroundImageFix"/>
<feColorMatrix in="SourceAlpha" type="matrix" values="0 0 0 0 0 0 0 0 0 0 0 0 0 0 0 0 0 0 127 0"/>
<feOffset dy="15"/>
<feGaussianBlur stdDeviation="14"/>
<feColorMatrix type="matrix" values="0 0 0 0 0 0 0 0 0 0 0 0 0 0 0 0 0 0 0.25 0"/>
<feBlend mode="normal" in2="BackgroundImageFix" result="effect1_dropShadow"/>
<feBlend mode="normal" in="SourceGraphic" in2="effect1_dropShadow" result="shape"/>
</filter>
<linearGradient id="paint0_linear" x1="102.5" y1="45" x2="102.5" y2="66" gradientUnits="userSpaceOnUse">
<stop stop-color="#688CE8"/>
<stop offset="1" stop-color="#A8BBEC"/>
</linearGradient>
</defs>
</svg>
