<svg width="70" height="70" viewBox="0 0 70 70" fill="none" xmlns="http://www.w3.org/2000/svg">
<rect x="0.834876" y="0.834876" width="68.3302" height="68.3302" rx="6.67901" stroke="#25252B" stroke-width="1.66975"/>
<rect x="14.0005" y="15.379" width="41.8385" height="38.5" rx="2.50463" fill="#25252B"/>
<path d="M33.1188 49.48C32.2015 49.48 31.3553 49.2693 30.5802 48.848C29.818 48.4104 29.1914 47.7946 28.7004 47.0004L30.4445 44.375C31.1809 45.6229 32.0207 46.2469 32.9638 46.2469C34.2428 46.2469 34.8823 45.3069 34.8823 43.427V35.3319H30.1151V32.1717H38.0023V43.2082C38.0023 45.2988 37.5889 46.8708 36.762 47.9242C35.9352 48.9614 34.7208 49.48 33.1188 49.48Z" fill="white"/>
<path d="M45.5603 49.48C44.488 49.48 43.448 49.3017 42.4403 48.9452C41.4455 48.5725 40.6446 48.0944 40.0374 47.5109L41.1032 44.5452C41.6846 45.08 42.3757 45.5095 43.1767 45.8336C43.9777 46.1577 44.7787 46.3198 45.5797 46.3198C46.4711 46.3198 47.13 46.1577 47.5563 45.8336C47.9827 45.4933 48.1958 45.0476 48.1958 44.4966C48.1958 44.0914 48.0666 43.7592 47.8083 43.4999C47.5628 43.2244 47.2398 43.0056 46.8393 42.8435C46.4517 42.6815 45.9221 42.5032 45.2503 42.3087C44.2167 42.0008 43.3705 41.6929 42.7116 41.385C42.0527 41.0771 41.4843 40.5828 41.0063 39.9021C40.5412 39.2214 40.3087 38.3139 40.3087 37.1795C40.3087 36.1909 40.5218 35.2995 40.9482 34.5054C41.3745 33.6951 42.014 33.055 42.8667 32.585C43.7322 32.115 44.7852 31.88 46.0254 31.88C46.891 31.88 47.7372 32.0097 48.564 32.269C49.3909 32.5283 50.1143 32.901 50.7345 33.3872L49.7655 36.3772C48.5124 35.4859 47.2592 35.0402 46.006 35.0402C45.1275 35.0402 44.4751 35.2185 44.0488 35.575C43.6354 35.9316 43.4286 36.4016 43.4286 36.985C43.4286 37.5684 43.6676 38.006 44.1457 38.2977C44.6366 38.5732 45.3794 38.8487 46.3742 39.1242C47.4078 39.4321 48.254 39.74 48.9129 40.048C49.5717 40.3559 50.1337 40.8421 50.5988 41.5065C51.0768 42.171 51.3158 43.0704 51.3158 44.2049C51.3158 45.1772 51.0962 46.0686 50.6569 46.8789C50.2306 47.673 49.5846 48.305 48.7191 48.775C47.8535 49.245 46.8006 49.48 45.5603 49.48Z" fill="white"/>
</svg>
