<svg width="70" height="70" viewBox="0 0 70 70" fill="none" xmlns="http://www.w3.org/2000/svg">
<rect width="69.7901" height="69.4766" rx="9" fill="#F0F0F0"/>
<path d="M35.03 15.6321C33.3441 15.6394 31.734 15.7723 30.3174 16.004C26.1442 16.6856 25.3865 18.1121 25.3865 20.7428V24.2172H35.2483V25.3754H25.3865H21.6854C18.8192 25.3754 16.3096 26.9678 15.5246 29.9973C14.6191 33.4697 14.5789 35.6366 15.5246 39.2623C16.2256 41.9612 17.8997 43.8843 20.7659 43.8843H24.1566V39.7192C24.1566 36.7102 26.973 34.0561 30.3174 34.0561H40.1678C42.9098 34.0561 45.0987 31.9691 45.0987 29.4235V20.7428C45.0987 18.2722 42.8441 16.4164 40.1678 16.004C38.4737 15.7433 36.7159 15.6249 35.03 15.6321ZM29.6967 18.4265C30.7154 18.4265 31.5473 19.2081 31.5473 20.1691C31.5473 21.1266 30.7154 21.9009 29.6967 21.9009C28.6744 21.9009 27.8462 21.1266 27.8462 20.1691C27.8462 19.2081 28.6744 18.4265 29.6967 18.4265Z" fill="white"/>
<path d="M46.3281 25.3757V29.4239C46.3281 32.5624 43.4497 35.2039 40.1673 35.2039H30.3169C27.6187 35.2039 25.386 37.3386 25.386 39.8365V48.5172C25.386 50.9878 27.71 52.4409 30.3169 53.1497C33.4387 53.9982 36.4322 54.1516 40.1673 53.1497C42.6501 52.4852 45.0983 51.1479 45.0983 48.5172V45.0428H35.2479V43.8846H45.0983H50.0292C52.8954 43.8846 53.9634 42.0366 54.9602 39.2627C55.9898 36.4071 55.946 33.6609 54.9602 29.9976C54.2518 27.3601 52.899 25.3757 50.0292 25.3757H46.3281ZM40.788 47.359C41.8103 47.359 42.6385 48.1334 42.6385 49.0909C42.6385 50.0519 41.8103 50.8334 40.788 50.8334C39.7693 50.8334 38.9375 50.0519 38.9375 49.0909C38.9375 48.1334 39.7693 47.359 40.788 47.359Z" fill="white"/>
</svg>
